<svg xmlns="http://www.w3.org/2000/svg" viewBox="0 0 16 16">
<path d="M15.4 4.9c-0.4-1-1-1.8-1.7-2.6s-1.6-1.3-2.6-1.7-2-0.6-3.1-0.6-2.1 0.2-3.1 0.6-1.9 1-2.6 1.7-1.2 1.6-1.7 2.6-0.6 2-0.6 3.1 0.2 2.1 0.6 3.1 1 1.8 1.7 2.6 1.6 1.3 2.6 1.7 2 0.6 3.1 0.6 2.1-0.2 3.1-0.6 1.8-1 2.6-1.7 1.3-1.6 1.7-2.6 0.6-2 0.6-3.1-0.2-2.1-0.6-3.1zM8.7 13.7c-0.2 0.2-0.4 0.3-0.7 0.3s-0.5-0.1-0.7-0.3-0.3-0.4-0.3-0.7 0.1-0.5 0.3-0.7 0.4-0.3 0.7-0.3 0.5 0.1 0.7 0.3 0.3 0.4 0.3 0.7-0.1 0.5-0.3 0.7zM11.2 8.5c-0.6 0.7-1.3 1.1-2.2 1.4v0.1c0 0.3-0.1 0.5-0.3 0.7s-0.4 0.3-0.7 0.3-0.5-0.1-0.7-0.3-0.3-0.4-0.3-0.7c0-0.5 0.1-1 0.3-1.4s0.4-0.6 0.7-0.6c0.6 0 1-0.2 1.4-0.6s0.6-0.8 0.6-1.4-0.2-1-0.6-1.4-0.8-0.6-1.4-0.6-1 0.2-1.4 0.6-0.6 0.8-0.6 1.4c0 0.3-0.1 0.5-0.3 0.7s-0.4 0.3-0.7 0.3-0.5-0.1-0.7-0.3-0.3-0.4-0.3-0.7c0-1.1 0.4-2 1.2-2.8s1.7-1.2 2.8-1.2 2 0.4 2.8 1.2 1.2 1.7 1.2 2.8c0 0.9-0.3 1.7-0.8 2.5z"/>
</svg>
